<?xml version="1.0" standalone="no"?>
<!DOCTYPE svg PUBLIC "-//W3C//DTD SVG 20010904//EN"
 "http://www.w3.org/TR/2001/REC-SVG-20010904/DTD/svg10.dtd">
<svg version="1.0" xmlns="http://www.w3.org/2000/svg"
 width="195.000000pt" height="195.000000pt" viewBox="0 0 195.000000 195.000000"
 preserveAspectRatio="xMidYMid meet">
<metadata>
Created by potrace 1.14, written by Peter Selinger 2001-2017
</metadata>
<g transform="translate(0.000000,195.000000) scale(0.100000,-0.100000)"
fill="#000000" stroke="none">
<path d="M940 1793 c-8 -3 -37 -16 -65 -29 -27 -12 -93 -41 -145 -64 -52 -23
-113 -50 -135 -60 -22 -10 -116 -52 -210 -94 -100 -45 -179 -87 -193 -102
l-22 -25 0 -455 c0 -304 4 -462 11 -475 11 -22 71 -52 359 -179 250 -111 264
-117 347 -156 40 -19 77 -34 83 -34 7 0 10 154 10 469 0 453 1 469 20 494 13
16 71 47 165 87 221 93 321 95 410 5 50 -50 75 -116 80 -214 7 -129 -40 -240
-138 -326 -48 -41 -197 -123 -257 -140 -48 -14 -50 -20 -50 -151 0 -68 2 -124
5 -124 4 0 72 30 435 191 94 42 114 54 127 81 10 17 13 136 13 475 l0 452 -22
26 c-13 14 -57 41 -98 59 -41 18 -203 90 -360 161 -269 120 -335 143 -370 128z"/>
<path d="M1290 985 l-75 -34 -3 -116 -3 -117 23 8 c39 12 101 45 140 76 65 51
86 151 41 200 -22 24 -36 22 -123 -17z"/>
</g>
</svg>
